<svg width="89" height="90" viewBox="0 0 89 90" fill="none" xmlns="http://www.w3.org/2000/svg">
<path fill-rule="evenodd" clip-rule="evenodd" d="M44.3599 89.054C68.8592 89.054 88.7198 69.1934 88.7198 44.6941C88.7198 20.1948 68.8592 0.334221 44.3599 0.334221C19.8606 0.334221 0 20.1948 0 44.6941C0 69.1934 19.8606 89.054 44.3599 89.054ZM44.7304 53.4284C52.6131 41.4847 52.9611 34.2461 44.7304 21.458C36.3426 34.519 37.4237 41.442 44.7304 53.4284ZM40.9861 68.9874C42.239 54.421 39.1624 47.9658 26.0666 41.3003C24.8977 57.1049 29.0647 62.5212 40.9861 68.9874ZM48.5228 68.9874C47.2699 54.421 50.3465 47.9658 63.4424 41.3003C64.6112 57.1049 60.4442 62.5212 48.5228 68.9874Z" fill="black"/>
</svg>
